<svg width="115" height="115" viewBox="0 0 115 115" fill="none" xmlns="http://www.w3.org/2000/svg">
<path fill-rule="evenodd" clip-rule="evenodd" d="M28.2119 42.7547C32.5589 49.4742 37.973 57.8347 45.5193 66.4102C59.8288 82.6655 76.7741 85.8441 76.9443 85.874L77.3306 85.7889L77.5434 85.4565C77.5672 85.3217 77.5366 85.183 77.4584 85.0708C77.3801 84.9585 77.2606 84.8817 77.1259 84.8574C76.9592 84.8286 60.3589 81.7052 46.2944 65.7271C38.8091 57.2206 33.4237 48.9015 29.0951 42.2165L29.0835 42.1993L29.0732 42.1843C25.0309 35.9398 21.8397 31.0086 18.4472 28.1175C13.715 24.0833 8.7619 24.3087 5.9582 25.729C3.4857 26.9825 2.12525 29.3239 2.3196 31.9942C2.32305 32.0379 2.67035 36.5413 7.21285 37.5142C9.19545 37.9397 11.0619 37.3371 12.205 35.9042C13.1457 34.7231 13.3883 33.1752 12.8191 31.9608C12.098 30.4118 10.7744 30.0783 10.0476 30.015C9.05285 29.9311 8.065 30.2519 7.6993 30.7786L7.6165 31.1639L7.83155 31.4974L8.2168 31.5813L8.5503 31.3674C8.6354 31.2432 9.22075 30.9845 9.96135 31.0454C10.4627 31.0903 11.3804 31.3214 11.8818 32.399C12.2843 33.2626 12.0934 34.385 11.3965 35.2602C10.503 36.3803 9.01835 36.8449 7.4279 36.5033C3.63865 35.6926 3.36035 32.0758 3.35 31.924C3.18325 29.6459 4.3045 27.7265 6.4251 26.6524C8.9436 25.3748 13.4309 25.2 17.7756 28.9041C21.0531 31.6986 24.2133 36.5792 28.213 42.7593V42.7559L28.2119 42.7547ZM61.1559 50.8622C61.1306 51.029 58.7754 69.475 73.7415 80.4977C73.8128 80.5736 83.7672 90.0749 108.787 90.0749C109.895 90.0749 111.031 90.0565 112.2 90.0174L112.561 89.8541L112.7 89.4827L112.537 89.1239L112.165 88.9847C111.015 89.0227 109.895 89.0411 108.804 89.0411C84.3272 89.0411 74.5085 79.81 74.4096 79.7123C59.9484 69.0575 62.1598 51.1417 62.1828 50.9623C63.0108 37.4509 74.4913 26.5248 87.775 26.5892C102.022 26.6582 109.665 36.5597 109.85 46.3036C109.95 51.5798 108.132 56.3523 104.731 59.7437C101.773 62.6911 97.8949 64.2632 93.8078 64.1746C89.5735 64.0803 85.9211 62.3484 83.5188 59.2952C81.3568 56.5444 80.5288 53.0783 81.2487 49.7881C82.692 43.1986 88.5892 43.3516 88.8387 43.3619C91.1123 43.4217 92.7878 44.0876 93.8228 45.3434C95.4167 47.2811 94.9797 50.0526 94.9751 50.0791C94.9538 50.2135 94.9863 50.3509 95.0656 50.4616C95.1449 50.5722 95.2646 50.6472 95.3988 50.6701C95.533 50.6931 95.6708 50.6623 95.7824 50.5844C95.8941 50.5065 95.9705 50.3877 95.9951 50.2539C96.0181 50.1216 96.5241 47.0051 94.622 44.6925C93.3915 43.1906 91.4572 42.3959 88.872 42.3292C88.8053 42.3269 81.8639 42.1418 80.239 49.5673C79.4501 53.1599 80.3505 56.9388 82.7057 59.9346C85.3013 63.2351 89.2355 65.1096 93.7837 65.2096C98.1537 65.3039 102.301 63.6249 105.46 60.4762C109.063 56.8848 110.988 51.8455 110.882 46.2875C110.688 36.0399 102.69 25.6301 87.7784 25.5576C73.9554 25.4909 62.0127 36.8437 61.1536 50.8645L61.1559 50.8611V50.8622ZM12.6845 83.835C13.386 84.6366 13.309 85.6589 13.309 85.6589L13.3113 85.6624C13.3918 87.3356 12.121 88.78 10.1465 89.2515C8.134 89.7322 5.6086 89.1032 4.49425 86.6134C3.5087 84.4089 3.7525 81.6995 5.12905 79.5409C6.79425 76.9339 9.87625 75.4676 13.8092 75.4124C18.8692 75.3434 24.8009 77.0121 33.7905 79.5421H33.7928C39.6463 81.1923 46.9304 83.2416 55.8785 85.3036C77.7021 90.3302 88.358 89.0261 88.4615 89.0135L88.8444 89.1158L89.0423 89.4585C89.0599 89.5944 89.0229 89.7316 88.9395 89.8403C88.8561 89.9489 88.733 90.0201 88.5972 90.0381C88.4902 90.0519 77.6538 91.3813 55.6462 86.3121C46.6682 84.2421 39.3703 82.1894 33.503 80.5368C24.6089 78.0321 18.7335 76.3796 13.823 76.4474C10.2477 76.4957 7.4716 77.7929 5.99845 80.0975C4.82545 81.9375 4.6058 84.3295 5.4384 86.1925C6.3078 88.1418 8.3065 88.6271 9.905 88.2441C11.1332 87.9509 12.3418 87.0424 12.2786 85.6451C12.2786 85.6382 12.3165 84.9804 11.9037 84.5135C11.7208 84.3088 11.4667 84.1685 11.1527 84.08C11.1283 84.1007 11.11 84.1278 11.0998 84.1582L11.0791 84.2513C11.0032 84.6067 10.8882 85.1483 10.1315 85.1575C9.30355 85.1667 8.88955 84.5515 9.13335 83.7039C9.24605 83.3072 9.7003 83.1174 10.2258 83.0898C10.2763 83.0417 10.3358 83.0043 10.4011 82.9798C10.4663 82.9553 10.5358 82.9442 10.6053 82.9472C11.5058 82.9909 12.205 83.2888 12.6845 83.835ZM67.5867 77.3099C67.4763 77.2398 60.1289 72.45 53.8235 63.4467C52.4619 61.1386 50.8611 58.1245 49.6456 54.9171C47.0558 48.0896 46.6578 39.8671 46.6578 36.6793C46.6578 33.4915 45.463 32.4703 43.9565 33.0947C42.4477 33.7203 41.6795 38.0455 43.5298 45.1019C44.9294 50.4413 48.1701 57.584 52.3273 63.0764C58.8973 72.8778 66.9162 78.1069 67.0312 78.1805L67.42 78.2495L67.7443 78.0229L67.8132 77.6331L67.5867 77.3099ZM67.2498 85.0874C67.2407 85.1547 67.2185 85.2196 67.1843 85.2784C67.1502 85.3372 67.1048 85.3886 67.0507 85.4298C66.9967 85.4711 66.9351 85.5012 66.8694 85.5186C66.8037 85.536 66.7352 85.5403 66.6678 85.5313V85.5324C66.5701 85.5209 57.4 84.2019 41.1447 74.4257C39.8726 73.7239 38.6026 73.0181 37.3348 72.3086H37.3337C35.876 71.4893 34.4132 70.6793 32.9453 69.8786C26.0315 66.1319 18.7473 64.4966 16.2127 64.3897C13.6804 64.2839 10.1959 64.1252 10.0384 62.3312C9.88085 60.5372 12.5719 58.5304 19.1694 60.5372C25.2621 62.3887 32.2104 66.8967 39.4738 71.6082C40.0752 71.9981 40.679 72.3902 41.285 72.7812C45.1214 75.2618 49.2959 77.6377 52.5872 79.4328C61.7412 83.7741 66.7334 84.4986 66.8047 84.5078C66.9405 84.5258 67.0636 84.5969 67.147 84.7056C67.2304 84.8142 67.2674 84.9515 67.2498 85.0874ZM94.7428 80.1263C96.0975 81.9973 98.7137 84.1375 101.643 85.5025C105.56 87.6956 109.268 87.9152 109.326 87.9175L109.699 87.783L109.866 87.423C109.872 87.2864 109.824 87.1531 109.732 87.0522C109.639 86.9513 109.511 86.8911 109.374 86.8848C109.329 86.8837 106.847 86.7273 103.866 85.4508C101.983 84.2743 99.628 82.2296 97.9019 78.7612C97.9019 78.7612 96.2803 75.1468 94.6301 74.9478C92.9798 74.75 92.5796 77.1397 94.7428 80.1263ZM72.634 66.4148C72.4086 63.3972 74.1428 63.5962 74.1428 63.5962V63.5973C75.7597 63.7997 76.2209 65.3603 76.9006 67.6568C77.4652 69.5658 78.1805 71.9831 79.8331 74.5534C81.1483 76.578 82.7269 78.4188 84.5274 80.0274C88.9917 83.4061 93.1834 84.5377 93.2524 84.5561L93.5687 84.793L93.6238 85.1851C93.5895 85.3177 93.504 85.4312 93.3861 85.5008C93.2682 85.5704 93.1275 85.5905 92.9948 85.5566C92.9224 85.5382 88.3327 84.3077 83.5544 80.5817C82.1606 79.6962 80.7059 78.5922 79.3765 77.2271C76.191 73.9542 72.8617 69.4301 72.634 66.4148Z" fill="black"/>
</svg>
